<svg xmlns="http://www.w3.org/2000/svg" viewBox="0 0 64 64" fill="none">
  <circle cx="32" cy="32" r="30" fill="#ec4899"/>
  <path d="M12 20L20 28L28 12L20 20L12 20Z" fill="#ec4899"/>
  <path d="M52 20L44 28L36 12L44 20L52 20Z" fill="#ec4899"/>
  <circle cx="24" cy="28" r="4" fill="white"/>
  <circle cx="40" cy="28" r="4" fill="white"/>
  <circle cx="25" cy="29" r="2" fill="#1f2937"/>
  <circle cx="41" cy="29" r="2" fill="#1f2937"/>
  <path d="M30 38Q34 42 38 38" stroke="#1f2937" stroke-width="2" stroke-linecap="round" fill="none"/>
  <path d="M32 46L32 38L30 40L32 38L34 40L32 46Z" fill="#f9a8d4"/>
  <ellipse cx="20" cy="44" rx="4" ry="2" fill="#f9a8d4"/>
  <ellipse cx="44" cy="44" rx="4" ry="2" fill="#f9a8d4"/>
</svg>
